<?xml version="1.0" encoding="UTF-8" standalone="no"?>
<svg
   version="1.0"
   width="267.000000pt"
   height="77.000000pt"
   viewBox="0 0 267.000000 77.000000"
   preserveAspectRatio="xMidYMid meet"
   id="svg20"
   sodipodi:docname="logotipo.svg"
   inkscape:version="1.1 (c68e22c387, 2021-05-23)"
   xmlns:inkscape="http://www.inkscape.org/namespaces/inkscape"
   xmlns:sodipodi="http://sodipodi.sourceforge.net/DTD/sodipodi-0.dtd"
   xmlns="http://www.w3.org/2000/svg"
   xmlns:svg="http://www.w3.org/2000/svg">
  <defs
     id="defs24" />
  <sodipodi:namedview
     id="namedview22"
     pagecolor="#ffffff"
     bordercolor="#666666"
     borderopacity="1.0"
     inkscape:pageshadow="2"
     inkscape:pageopacity="0.0"
     inkscape:pagecheckerboard="0"
     inkscape:document-units="pt"
     showgrid="false"
     inkscape:zoom="1.145076"
     inkscape:cx="138.41876"
     inkscape:cy="106.9798"
     inkscape:window-width="1366"
     inkscape:window-height="697"
     inkscape:window-x="-8"
     inkscape:window-y="365"
     inkscape:window-maximized="1"
     inkscape:current-layer="svg20" />
  <g
     aria-label="Doctor"
     id="text1106"
     style="font-size:40px;font-family:'Script MT Bold';-inkscape-font-specification:'Script MT Bold, ';fill:#ffffff;stroke-width:0.75"
     transform="matrix(1.1860982,0,0,1.1860982,-24.585995,-7.2831223)">
    <path
       style="color:#000000;-inkscape-font-specification:'Script MT Bold, ';fill:#ffffff;-inkscape-stroke:none"
       d="m 89.671623,49.210133 2.5,1.054687 q 1.210938,0.527344 1.972656,0.722656 0.78125,0.175782 1.484375,0.175782 3.242188,0 5.195316,-4.238282 1.97265,-4.257812 1.97265,-9.121093 0,-5.136719 -2.5,-8.261719 -2.480466,-3.144531 -6.503903,-3.144531 -3.222656,0 -6.054688,2.324218 -2.8125,2.304688 -2.8125,4.882813 0,1.933594 1.640625,2.636719 0.703125,0.332031 0.703125,0.878906 0,0.566406 -1.542968,1.230469 -1.523438,0.664062 -1.855469,0.664062 -0.996094,0 -1.757813,-1.152344 -0.761718,-1.171875 -0.761718,-2.578125 0,-3.730468 3.886718,-7.070312 3.90625,-3.359375 10.15625,-3.359375 5.976561,0 9.531251,3.300781 3.55469,3.28125 3.55469,8.808594 0,4.21875 -2.20703,8.007812 -2.1875,3.789063 -5.91797,6.015625 -3.710941,2.226563 -7.871097,2.226563 -3.496094,0 -6.523437,-1.523438 -2.441407,1.523438 -4.238282,1.523438 -1.015625,0 -1.71875,-0.585938 -0.683593,-0.585937 -0.683593,-1.425781 0,-1.367187 1.425781,-2.304687 1.425781,-0.9375 3.574219,-0.9375 1.523437,0 2.910156,0.488281 1.230469,-1.015625 1.679687,-2.441406 0.449219,-1.425782 0.898438,-5.039063 0.449219,-3.613281 1.40625,-5.683594 0.957031,-2.070312 2.8125,-3.457031 1.875,-1.40625 3.769531,-1.621094 l 0.761719,1.035157 q -1.210938,1.230468 -1.816406,2.5 -0.585938,1.269531 -1.074219,5.46875 -0.46875,4.179687 -1.835938,6.289062 -1.347656,2.089844 -4.160156,3.710938 z"
       id="path115" />
    <path
       style="color:#000000;-inkscape-font-specification:'Script MT Bold, ';fill:#ffffff;-inkscape-stroke:none"
       d="m 126.95678,48.409351 q -0.99609,0.878907 -1.93359,1.25 -0.9375,0.351563 -1.48438,0.351563 -1.40625,0 -2.79297,-1.09375 -2.8125,4.257812 -6.44531,4.257812 -2.26563,0 -3.67188,-1.699218 -1.40625,-1.699219 -1.40625,-4.511719 0,-4.453125 3.16407,-7.636719 3.16406,-3.203125 7.55859,-3.203125 1.66016,0 2.42188,0.371094 0.78125,0.351562 0.95703,0.839844 0.17578,0.488281 0.17578,1.230468 0,3.652344 -1.99219,8.964844 0.99609,0.917969 2.08984,0.917969 1.3086,0 3.35938,-2.285156 z m -6.44531,-10.917968 q -0.29297,-0.117188 -0.83985,-0.117188 -2.53906,0 -3.98437,2.65625 -1.42578,2.65625 -1.42578,6.210938 0,1.972656 0.625,3.066406 0.625,1.09375 1.73828,1.09375 1.38672,0 3.00781,-2.558594 -1.83594,-2.304687 -1.83594,-4.960937 0,-3.125 2.71485,-5.390625 z"
       id="path117" />
    <path
       style="color:#000000;-inkscape-font-specification:'Script MT Bold, ';fill:#ffffff;-inkscape-stroke:none"
       d="m 141.54662,48.409351 q -2.5,2.460938 -4.58984,3.613282 -2.07031,1.152343 -4.33594,1.152343 -2.53906,0 -4.19922,-1.640625 -1.64062,-1.660156 -1.64062,-4.199218 0,-4.160157 3.02734,-7.675782 3.04688,-3.535156 6.58203,-3.535156 1.73828,0 2.83203,0.976563 1.09375,0.957031 1.09375,2.5 0,0.546875 -0.21484,0.820312 -0.19531,0.273438 -0.76172,0.546875 l -2.26562,1.074219 q -0.41016,0.195312 -0.60547,0.195312 -0.27344,0 -0.27344,-0.390625 0,-0.15625 0.11719,-1.015625 0.11719,-0.878906 0.11719,-1.074218 0,-0.859375 -0.3711,-1.386719 -0.35156,-0.527344 -0.95703,-0.527344 -1.42578,0 -2.61719,2.109375 -1.17187,2.109375 -1.17187,4.804688 0,2.324218 1.11328,3.710937 1.11328,1.386719 2.96875,1.386719 1.58203,0 2.96875,-0.898438 1.40625,-0.917968 3.18359,-2.792968 z"
       id="path119" />
    <path
       style="color:#000000;-inkscape-font-specification:'Script MT Bold, ';fill:#ffffff;-inkscape-stroke:none"
       d="m 152.79662,48.409351 q -2.46093,2.441407 -4.25781,3.613282 -1.79687,1.152343 -3.41797,1.152343 -1.67969,0 -2.73437,-1.40625 -1.03516,-1.425781 -1.03516,-3.730468 0,-2.03125 0.97656,-5.371094 l 0.85938,-2.949219 -1.50391,0.07813 0.625,-3.066406 1.85547,-0.07813 1.83594,-6.09375 5.23437,-1.074219 -1.99218,6.796875 2.71484,-0.15625 -0.64453,3.007813 -3.02735,0.234375 -1.30859,4.375 q -0.66406,2.285156 -0.66406,3.632812 0,0.917969 0.44922,1.503906 0.46875,0.566407 1.1914,0.566407 0.9961,0 1.97266,-0.625 0.97656,-0.644532 2.87109,-2.65625 z"
       id="path121" />
    <path
       style="color:#000000;-inkscape-font-specification:'Script MT Bold, ';fill:#ffffff;-inkscape-stroke:none"
       d="m 170.31615,48.409351 q -0.99609,0.878907 -1.93359,1.25 -0.9375,0.351563 -1.48437,0.351563 -1.40625,0 -2.79297,-1.09375 -2.8125,4.257812 -6.44532,4.257812 -2.26562,0 -3.67187,-1.699218 -1.40625,-1.699219 -1.40625,-4.511719 0,-4.453125 3.16406,-7.636719 3.16406,-3.203125 7.5586,-3.203125 1.66015,0 2.42187,0.371094 0.78125,0.351562 0.95703,0.839844 0.17578,0.488281 0.17578,1.230468 0,3.652344 -1.99218,8.964844 0.99609,0.917969 2.08984,0.917969 1.30859,0 3.35937,-2.285156 z m -6.44531,-10.917968 q -0.29297,-0.117188 -0.83984,-0.117188 -2.53906,0 -3.98438,2.65625 -1.42578,2.65625 -1.42578,6.210938 0,1.972656 0.625,3.066406 0.625,1.09375 1.73828,1.09375 1.38672,0 3.00782,-2.558594 -1.83594,-2.304687 -1.83594,-4.960937 0,-3.125 2.71484,-5.390625 z"
       id="path123" />
    <path
       style="color:#000000;-inkscape-font-specification:'Script MT Bold, ';fill:#ffffff;-inkscape-stroke:none"
       d="m 184.906,48.409351 q -4.90235,4.804688 -7.5586,4.804688 -1.1914,0 -2.01171,-0.996094 -0.82032,-1.015625 -0.82032,-2.5 0,-2.753906 2.94922,-7.382812 -1.44531,0.742187 -3.16406,1.035156 -1.26953,2.34375 -3.98438,5.039062 h -0.44921 v -1.757812 q 1.52343,-1.582031 2.7539,-3.398438 -1.67969,-0.742187 -1.67969,-2.207031 0,-1.503906 1.01563,-3.203125 1.03516,-1.71875 2.83203,-1.71875 1.52344,0 1.52344,1.5625 0,1.230469 -0.87891,3.515625 3.24219,-0.351562 5.66406,-4.960937 l 1.77735,-0.07813 -1.81641,5 q -1.13281,3.164062 -1.46484,4.316406 -0.33203,1.132812 -0.33203,2.011719 0,0.820312 0.37109,1.308593 0.39063,0.488282 1.03516,0.488282 0.70312,0 1.34765,-0.46875 0.64453,-0.488282 2.89063,-2.65625 z"
       id="path125" />
  </g>
</svg>
