<?xml version="1.0" standalone="no"?>
<!DOCTYPE svg PUBLIC "-//W3C//DTD SVG 20010904//EN"
 "http://www.w3.org/TR/2001/REC-SVG-20010904/DTD/svg10.dtd">
<svg version="1.0" xmlns="http://www.w3.org/2000/svg"
 width="239.000000pt" height="106.000000pt" viewBox="0 0 239.000000 106.000000"
 preserveAspectRatio="xMidYMid meet">

<g transform="translate(0.000000,106.000000) scale(0.100000,-0.100000)"
fill="#000000" stroke="none">
<path d="M450 865 c-8 -9 -30 -15 -59 -15 -26 0 -52 -5 -59 -12 -17 -17 -17
-389 0 -406 8 -8 60 -12 170 -12 145 0 158 1 168 19 13 26 13 366 0 392 -8 15
-21 19 -59 19 -31 0 -53 5 -61 15 -7 8 -29 15 -50 15 -21 0 -43 -7 -50 -15z
m83 -30 c-4 -15 -66 -12 -71 3 -3 10 6 13 34 10 22 -2 38 -7 37 -13z m-93 -20
c17 -20 93 -20 110 0 9 11 27 15 54 13 l41 -3 0 -190 0 -190 -150 0 -150 0 -3
184 c-2 141 1 186 10 193 21 13 75 9 88 -7z"/>
<path d="M415 730 c-3 -5 -15 -10 -26 -10 -25 0 -20 -23 5 -28 20 -4 46 15 46
34 0 16 -16 19 -25 4z"/>
<path d="M470 710 c0 -6 32 -10 75 -10 43 0 75 4 75 10 0 6 -32 10 -75 10 -43
0 -75 -4 -75 -10z"/>
<path d="M421 636 c-8 -10 -21 -14 -32 -11 -23 8 -25 -8 -3 -25 13 -11 19 -10
36 7 11 12 19 26 16 33 -3 9 -8 7 -17 -4z"/>
<path d="M470 615 c0 -13 12 -15 72 -13 46 2 73 7 76 16 3 9 -16 12 -72 12
-62 0 -76 -3 -76 -15z"/>
<path d="M421 546 c-8 -10 -21 -14 -32 -11 -23 8 -25 -8 -3 -25 13 -11 19 -10
36 7 11 12 19 26 16 33 -3 9 -8 7 -17 -4z"/>
<path d="M470 525 c0 -12 14 -15 76 -15 56 0 75 3 72 13 -3 8 -30 13 -76 15
-60 2 -72 0 -72 -13z"/>
<path d="M1676 733 c-12 -12 -6 -33 9 -33 8 0 15 6 15 14 0 17 -14 28 -24 19z"/>
<path d="M935 710 c-25 -28 -13 -62 30 -83 23 -11 35 -24 35 -37 0 -24 -37
-28 -46 -5 -8 19 -34 20 -34 1 0 -41 73 -62 104 -30 30 30 14 74 -34 94 -34
14 -42 50 -11 50 11 0 21 -5 23 -11 2 -6 12 -10 21 -8 16 4 16 6 2 27 -20 28
-65 29 -90 2z"/>
<path d="M1076 664 c-20 -20 -20 -73 0 -102 17 -24 53 -29 72 -10 17 17 15 38
-3 38 -8 0 -15 -4 -15 -10 0 -18 -29 -10 -35 10 -9 27 3 60 21 60 8 0 14 -4
14 -10 0 -5 7 -10 15 -10 18 0 20 21 3 38 -17 17 -54 15 -72 -4z"/>
<path d="M1190 609 c0 -55 3 -69 15 -69 11 0 15 12 15 50 0 36 4 52 15 56 26
10 16 31 -15 32 l-30 1 0 -70z"/>
<path d="M1286 658 c-36 -51 -7 -121 47 -116 19 2 33 9 35 19 2 12 -4 15 -28
11 -23 -3 -30 0 -30 12 0 12 9 16 35 16 29 0 35 4 35 21 0 58 -62 82 -94 37z
m57 -23 c1 -5 -6 -11 -15 -13 -11 -2 -18 3 -18 13 0 17 30 18 33 0z"/>
<path d="M1416 658 c-36 -51 -7 -121 47 -116 19 2 33 9 35 19 2 12 -4 15 -28
11 -23 -3 -30 0 -30 12 0 12 9 16 35 16 29 0 35 4 35 21 0 58 -62 82 -94 37z
m57 -23 c1 -5 -6 -11 -15 -13 -11 -2 -18 3 -18 13 0 17 30 18 33 0z"/>
<path d="M1530 608 c0 -61 2 -68 20 -68 18 0 20 7 20 55 0 42 3 55 15 55 12 0
15 -13 15 -55 0 -47 3 -55 18 -55 16 0 18 7 15 58 -6 80 -6 80 -57 80 l-46 -1
0 -69z"/>
<path d="M1670 610 c0 -56 3 -70 15 -70 12 0 15 14 15 70 0 56 -3 70 -15 70
-12 0 -15 -14 -15 -70z"/>
<path d="M1730 609 c0 -62 2 -69 20 -69 18 0 20 7 20 55 0 42 3 55 15 55 12 0
15 -13 15 -55 0 -43 3 -55 15 -55 13 0 15 12 13 68 l-3 67 -47 1 -48 2 0 -69z"/>
<path d="M1870 660 c-14 -27 -12 -83 3 -105 10 -12 22 -16 40 -13 15 3 27 2
27 -3 0 -11 -22 -24 -42 -24 -32 0 -23 -20 10 -23 53 -5 62 10 62 103 l0 82
-45 1 c-34 1 -47 -3 -55 -18z m65 -50 c0 -24 -5 -36 -17 -38 -19 -4 -32 29
-23 59 11 34 40 19 40 -21z"/>
</g>
</svg>
