<?xml version="1.0" standalone="no"?>
<!DOCTYPE svg PUBLIC "-//W3C//DTD SVG 20010904//EN"
 "http://www.w3.org/TR/2001/REC-SVG-20010904/DTD/svg10.dtd">
<svg version="1.0" xmlns="http://www.w3.org/2000/svg"
 width="267.000000pt" height="77.000000pt" viewBox="0 0 267.000000 77.000000"
 preserveAspectRatio="xMidYMid meet">

<g transform="translate(0.000000,77.000000) scale(0.100000,-0.100000)"
fill="#000000" stroke="none">
<path d="M195 606 c-38 -16 -53 -35 -61 -73 -9 -44 15 -63 80 -63 62 0 72 -9
82 -70 8 -52 -9 -70 -68 -70 -45 0 -49 13 -9 30 58 24 43 70 -23 70 -46 0 -81
-22 -81 -49 0 -76 192 -95 261 -26 18 18 24 35 24 69 0 55 -15 66 -94 66 -52
0 -57 2 -71 31 -23 44 -16 73 18 77 16 2 36 1 45 -3 13 -5 10 -9 -16 -22 -39
-19 -40 -26 -7 -41 53 -24 111 -5 104 34 -9 44 -119 68 -184 40z"/>
<path d="M1830 611 c-27 -18 6 -36 65 -35 58 0 75 8 57 26 -15 15 -103 21
-122 9z"/>
<path d="M1671 512 c-20 -20 -41 -46 -48 -57 -9 -16 -10 -12 -3 20 5 22 8 40
7 41 -1 1 -30 4 -64 7 -49 4 -63 2 -63 -8 0 -8 8 -15 17 -17 12 -2 20 -21 28
-71 10 -63 10 -67 -7 -61 -13 4 -18 0 -18 -14 0 -17 8 -21 54 -24 l53 -3 -4
35 c-5 39 26 90 54 90 13 0 15 -11 11 -69 l-5 -70 46 -10 c51 -11 65 -6 38 14
-16 12 -17 23 -11 99 6 71 4 90 -10 111 -22 33 -32 32 -75 -13z"/>
<path d="M2132 513 c-20 -21 -42 -47 -49 -58 -9 -16 -10 -12 -3 20 5 22 8 40
7 41 -1 1 -30 4 -64 7 -50 4 -63 2 -63 -9 0 -8 6 -14 14 -14 9 0 18 -21 25
-63 14 -80 14 -77 -4 -71 -10 4 -15 0 -15 -14 0 -17 8 -21 54 -24 l55 -3 -6
27 c-10 49 29 110 58 92 12 -7 12 -76 -1 -108 -9 -24 -7 -25 38 -33 26 -4 52
-8 57 -8 6 0 16 -8 23 -17 28 -38 135 -49 192 -20 54 27 75 113 46 193 -12 34
-11 36 6 31 13 -3 18 1 18 17 0 17 -6 21 -29 21 -16 0 -36 3 -45 6 -11 4 -16
1 -16 -11 0 -14 -3 -15 -14 -6 -7 6 -34 14 -59 17 -57 8 -77 -6 -77 -52 0 -84
62 -126 133 -90 24 13 27 13 27 -2 0 -9 -5 -34 -11 -55 -11 -41 -37 -57 -90
-57 -38 0 -37 15 1 29 35 12 49 39 29 52 -23 16 -101 3 -120 -19 -28 -36 -40
-8 -33 82 5 82 -5 124 -34 134 -7 2 -29 -14 -50 -35z m298 -51 c35 -29 17 -45
-42 -40 -54 6 -74 18 -65 42 9 23 79 21 107 -2z"/>
<path d="M1900 530 c-14 -4 -42 -8 -62 -9 -42 -1 -53 -25 -17 -34 20 -5 21
-11 16 -58 -7 -54 -20 -79 -43 -79 -8 0 -14 -6 -14 -12 0 -10 25 -13 90 -13
87 0 90 1 90 23 0 16 -6 22 -21 22 -21 0 -21 4 -17 85 2 47 4 85 4 84 -1 -1
-12 -5 -26 -9z"/>
<path d="M487 516 c-21 -8 -40 -16 -41 -18 -26 -30 -34 -104 -15 -140 23 -43
115 -61 169 -33 35 18 65 63 34 50 -11 -4 -38 -10 -61 -12 -42 -5 -43 -4 -58
30 -20 49 -19 73 5 97 14 14 33 20 63 19 l42 0 -38 -16 c-29 -12 -37 -20 -35
-37 7 -47 128 -44 128 3 0 17 4 19 23 12 19 -8 22 -14 19 -57 -2 -31 -10 -55
-21 -64 -28 -25 -15 -39 27 -29 20 5 60 9 88 9 37 0 54 4 58 15 4 10 -1 15
-14 15 -33 0 -60 36 -60 80 0 44 18 60 67 60 l28 0 -32 -26 c-39 -30 -42 -51
-9 -60 38 -9 106 13 106 36 0 32 -11 50 -41 65 -35 19 -66 19 -101 1 -25 -13
-28 -13 -28 1 0 11 -5 13 -17 7 -10 -4 -35 -9 -55 -12 -21 -2 -38 -8 -38 -13
0 -5 -11 -2 -24 6 -34 23 -123 28 -169 11z"/>
<path d="M1036 520 c-45 -14 -66 -39 -66 -79 0 -48 18 -81 59 -108 39 -27 87
-29 137 -8 30 12 35 19 32 42 -2 21 -10 29 -35 36 -38 11 -83 2 -83 -17 0 -8
12 -24 28 -35 l27 -20 -27 -1 c-34 0 -58 33 -58 78 l0 34 68 -6 c37 -4 75 -10
85 -12 25 -8 24 57 -2 80 -23 21 -121 30 -165 16z m113 -33 c16 -20 4 -27 -43
-27 -46 0 -72 12 -62 29 10 16 91 14 105 -2z"/>
<path d="M1312 521 c-49 -13 -72 -38 -72 -80 1 -96 91 -154 189 -120 38 14 58
44 41 64 -15 18 -71 29 -99 20 -29 -9 -26 -29 7 -54 l27 -20 -27 -1 c-34 0
-58 33 -58 78 l0 34 68 -6 c37 -4 75 -10 85 -12 25 -8 24 57 -2 80 -22 20
-110 29 -159 17z m113 -41 c0 -11 -13 -16 -45 -18 -49 -2 -77 9 -65 27 11 18
110 10 110 -9z"/>
</g>
</svg>
