<?xml version="1.0" standalone="no"?>
<!DOCTYPE svg PUBLIC "-//W3C//DTD SVG 20010904//EN"
 "http://www.w3.org/TR/2001/REC-SVG-20010904/DTD/svg10.dtd">
<svg version="1.0" xmlns="http://www.w3.org/2000/svg"
 width="127.000000pt" height="70.000000pt" viewBox="0 0 127.000000 70.000000"
 preserveAspectRatio="xMidYMid meet">

<g transform="translate(0.000000,70.000000) scale(0.100000,-0.100000)"
fill="#000000" stroke="none">
<path d="M275 560 c-3 -5 -19 -10 -34 -10 -47 0 -51 -13 -51 -167 0 -167 -9
-156 130 -151 l85 3 0 155 0 155 -37 3 c-21 2 -38 7 -38 13 0 12 -47 12 -55
-1z m48 -25 c-4 -15 -36 -12 -41 3 -3 9 3 13 19 10 13 -1 23 -7 22 -13z m-58
-15 c3 -5 19 -10 35 -10 16 0 32 5 35 10 3 6 17 10 31 10 l24 0 0 -145 0 -145
-90 0 -90 0 0 138 c0 76 3 142 7 145 10 10 41 8 48 -3z"/>
<path d="M236 451 c-12 -5 -16 -10 -9 -14 13 -8 43 2 43 14 0 10 -8 10 -34 0z"/>
<path d="M313 443 c15 -2 37 -2 50 0 12 2 0 4 -28 4 -27 0 -38 -2 -22 -4z"/>
<path d="M242 385 c-18 -10 -20 -14 -9 -23 10 -8 16 -6 26 9 16 26 12 29 -17
14z"/>
<path d="M290 370 c0 -5 18 -10 39 -10 22 0 43 5 46 10 4 6 -12 10 -39 10 -25
0 -46 -4 -46 -10z"/>
<path d="M256 321 c-4 -6 -13 -8 -21 -4 -8 3 -15 1 -15 -5 0 -17 28 -21 41 -6
6 8 9 17 6 20 -3 3 -8 1 -11 -5z"/>
<path d="M290 310 c0 -5 21 -10 46 -10 27 0 43 4 39 10 -3 6 -24 10 -46 10
-21 0 -39 -4 -39 -10z"/>
<path d="M572 448 c-21 -21 -14 -54 13 -66 27 -13 34 -42 10 -42 -8 0 -15 5
-15 10 0 6 -4 10 -10 10 -5 0 -10 -9 -10 -20 0 -15 7 -20 29 -20 47 0 54 57
10 81 -23 12 -25 39 -4 39 8 0 15 -4 15 -10 0 -5 5 -10 10 -10 7 0 7 6 0 20
-12 23 -30 26 -48 8z"/>
<path d="M1010 450 c0 -5 5 -10 10 -10 6 0 10 5 10 10 0 6 -4 10 -10 10 -5 0
-10 -4 -10 -10z"/>
<path d="M652 408 c-26 -26 -6 -88 28 -88 11 0 20 6 20 14 0 8 -8 13 -17 12
-20 -1 -27 23 -13 44 9 13 11 13 21 0 8 -12 10 -12 7 5 -4 23 -28 31 -46 13z"/>
<path d="M720 369 c0 -27 5 -49 10 -49 6 0 10 15 10 34 0 19 5 38 10 41 16 10
11 21 -10 22 -18 2 -20 -4 -20 -48z"/>
<path d="M780 399 c-6 -11 -8 -33 -5 -50 5 -22 12 -29 31 -29 13 0 24 5 24 10
0 6 -9 10 -20 10 -11 0 -20 5 -20 10 0 6 11 10 25 10 25 0 31 13 19 44 -9 23
-41 20 -54 -5z m35 -9 c3 -5 -1 -10 -9 -10 -9 0 -16 5 -16 10 0 6 4 10 9 10 6
0 13 -4 16 -10z"/>
<path d="M860 399 c-6 -11 -8 -33 -5 -50 5 -22 12 -29 31 -29 14 0 24 6 24 14
0 9 -7 12 -20 9 -11 -3 -20 0 -20 6 0 6 11 11 25 11 27 0 35 26 13 48 -18 18
-36 15 -48 -9z m35 -9 c3 -5 -1 -10 -9 -10 -9 0 -16 5 -16 10 0 6 4 10 9 10 6
0 13 -4 16 -10z"/>
<path d="M930 369 c0 -27 5 -49 10 -49 6 0 10 18 10 40 0 22 5 40 10 40 6 0
10 -18 10 -40 0 -22 5 -40 11 -40 6 0 9 19 7 47 -3 44 -5 48 -30 50 -27 2 -28
0 -28 -48z"/>
<path d="M1010 370 c0 -27 5 -50 10 -50 6 0 10 23 10 50 0 28 -4 50 -10 50 -5
0 -10 -22 -10 -50z"/>
<path d="M1050 369 c0 -27 5 -49 10 -49 6 0 10 18 10 40 0 22 5 40 10 40 6 0
10 -18 10 -40 0 -22 5 -40 11 -40 6 0 9 19 7 47 -3 44 -5 48 -30 50 -27 2 -28
0 -28 -48z"/>
<path d="M1136 413 c-3 -4 -6 -26 -6 -50 0 -40 2 -43 27 -43 30 0 22 -15 -12
-22 -19 -5 -19 -5 -1 -13 34 -15 51 7 54 72 l3 60 -30 1 c-16 0 -32 -2 -35 -5z
m39 -43 c0 -13 -6 -25 -12 -27 -9 -3 -13 6 -13 27 0 21 4 30 13 28 6 -3 12
-15 12 -28z"/>
</g>
</svg>
